<svg width="24" height="24" viewBox="0 0 24 24" fill="none" xmlns="http://www.w3.org/2000/svg">
  <title>Bike (outlined)</title>
  <g transform="matrix(
          1 0
          0 1
          0 3
        )"><path fill-rule="nonzero" clip-rule="nonzero" d="M 19.39990234375 6.100006103515625 L 16.39990234375 0 L 12 0 L 12 3 L 14.60009765625 3 L 15.60009765625 5 L 9.19970703125 5 L 8 2 L 4 2 L 4 5 L 6 5 L 6.39990234375 6.100006103515625 C 6.099902153015137 6.100006103515625 5.800000190734863 6 5.5 6 C 2.5 6 0 8.5 0 11.5 C 0 14.5 2.5 17 5.5 17 C 6.5 17 7.399706840515137 16.79998779296875 8.19970703125 16.29998779296875 C 8.599706649780273 16.099987030029297 8.899706840515137 15.800000190734863 9.19970703125 15.5 C 9.899706840515137 14.800000190734863 10.399706840515137 13.899999618530273 10.69970703125 13 L 13.10009765625 13 C 13.800097465515137 15.300000190734863 15.89990234375 17 18.39990234375 17 C 19.89990234375 17 21.299999237060547 16.399988174438477 22.5 15.29998779296875 L 22.69970703125 15.100006103515625 C 23.499706268310547 14.100006103515625 24 12.899999618530273 24 11.5 C 23.899999618530273 8.800000190734863 21.89990234375 6.500006198883057 19.39990234375 6.100006103515625 Z M 7.2998046875 13.100006103515625 C 6.699804782867432 13.700006484985352 6.099902153015137 14 5.39990234375 14 C 3.9999022483825684 14 2.89990234375 12.899999618530273 2.89990234375 11.5 C 2.89990234375 10.600000381469727 3.399707078933716 9.79998779296875 4.19970703125 9.29998779296875 C 4.599707126617432 9.099987983703613 4.999902248382568 9 5.39990234375 9 C 6.799902439117432 9 7.89990234375 10.100000381469727 7.89990234375 11.5 C 7.89990234375 12.100000381469727 7.699804782867432 12.700006484985352 7.2998046875 13.100006103515625 Z M 13.10009765625 10 L 11.10009765625 10 L 10.2998046875 8 L 14.19970703125 8 C 13.69970703125 8.600000381469727 13.300097465515137 9.300000190734863 13.10009765625 10 Z M 20.2998046875 13.100006103515625 C 19.699804306030273 13.700006484985352 19.099903106689453 14 18.39990234375 14 C 16.999902725219727 14 15.89990234375 12.899999618530273 15.89990234375 11.5 C 15.89990234375 10.600000381469727 16.399707794189453 9.79998779296875 17.19970703125 9.29998779296875 C 17.599706649780273 9.099987983703613 17.999902725219727 9 18.39990234375 9 C 19.799901962280273 9 20.89990234375 10.100000381469727 20.89990234375 11.5 C 20.89990234375 12.100000381469727 20.699804306030273 12.700006484985352 20.2998046875 13.100006103515625 Z" fill="currentColor"/></g>
</svg>