<svg width="24" height="24" viewBox="0 0 24 24" fill="none" xmlns="http://www.w3.org/2000/svg">
  <title>Train (outlined)</title>
  <g transform="matrix(
          1 0
          0 1
          2 1
        )"><path fill-rule="nonzero" clip-rule="nonzero" d="M 15 0 L 5 0 C 2.200000047683716 0 0 2.200000047683716 0 5 L 0 15 C 0 17.200000762939453 1.6999022960662842 18.899999618530273 3.89990234375 19 L 0.89990234375 22 L 5.10009765625 22 L 8.10009765625 19 L 11.89990234375 19 L 14.89990234375 22 L 19.10009765625 22 L 16.10009765625 19 C 18.300098419189453 18.899999618530273 20 17.200000762939453 20 15 L 20 5 C 20 2.200000047683716 17.799999237060547 0 15 0 Z M 3 5 C 3 3.9000000953674316 3.9000000953674316 3 5 3 L 8.5 3 L 8.5 10 L 3 10 L 3 5 Z M 17 15 C 17 15.600000381469727 16.600000381469727 16 16 16 L 4 16 C 3.4000000953674316 16 3 15.600000381469727 3 15 L 3 13 L 17 13 L 17 15 Z M 17 10 L 11.5 10 L 11.5 3 L 15 3 C 16.100000381469727 3 17 3.9000000953674316 17 5 L 17 10 Z" fill="currentColor"/></g>
</svg>