<svg width="24" height="24" viewBox="0 0 24 24" fill="none" xmlns="http://www.w3.org/2000/svg">
  <title>Truck (outlined)</title>
  <g transform="matrix(
          1 0
          0 1
          1 1
        )"><path fill-rule="nonzero" clip-rule="nonzero" d="M 21 9 L 21 0 L 1 0 L 1 9 L 0 9 L 0 15 L 2 15 L 2 22 L 6 22 L 6 20 L 16 20 L 16 22 L 20 22 L 20 15 L 22 15 L 22 9 L 21 9 Z M 16 17 L 15 17 L 15 15 L 17 15 L 17 17 L 16 17 Z M 5 15 L 7 15 L 7 17 L 5 17 L 5 15 Z M 10 17 L 10 15 L 12 15 L 12 17 L 10 17 Z M 5 12 L 5 8 L 17 8 L 17 12 L 5 12 Z M 4 3 L 18 3 L 18 5.199999809265137 C 17.700000762939453 5.099999904632568 17.399999618530273 5 17 5 L 5 5 C 4.599999904632568 5 4.300000190734863 5.099999904632568 4 5.199999809265137 L 4 3 Z" fill="currentColor"/></g>
</svg>